<?xml version="1.0" encoding="utf-8"?>
<!-- Generator: Adobe Illustrator 23.0.3, SVG Export Plug-In . SVG Version: 6.00 Build 0)  -->
<svg version="1.1" id="Capa_1" xmlns="http://www.w3.org/2000/svg" xmlns:xlink="http://www.w3.org/1999/xlink" x="0px" y="0px"
	 viewBox="0 0 46 46" style="enable-background:new 0 0 46 46;" xml:space="preserve">
<style type="text/css">
	.st0{fill-rule:evenodd;clip-rule:evenodd;fill:#ED1C24;}
</style>
<g id="g4203" transform="matrix(0.96810443,0,0,0.96385545,77.339874,1074.5475)">
	<path id="path3461" class="st0" d="M-42.4-1100.2c0.1,0,0.3,0,0.5,0.3c0,0,0,0,8.2,8c0.5,0.5,0.5,1.2,0,1.6c0,0,0,0-8.2,8.1
		c-0.2,0.2-0.4,0.3-0.5,0.2c-0.1-0.1-0.2-0.3-0.2-0.6v-17.1C-42.6-1100-42.6-1100.1-42.4-1100.2z"/>
	<path id="path3463" class="st0" d="M-56.4-1113.5h0.6l0.6,0.2c0,0,0,0,8.4,8.4c0.4,0.5,0.2,0.8-0.4,0.8c0,0,0,0-3.5,0
		c-0.6,0-1.1,0.5-1.1,1.1c0,0,0,0,0,6.2c0,0.6-0.5,1.1-1.2,1.1c0,0,0,0-6.1,0c-0.6,0-1.1-0.5-1.1-1.1c0,0,0,0,0-6.2
		c0-0.6-0.5-1.1-1.1-1.1H-65c-0.6,0-0.7-0.4-0.4-0.8c0,0,0,0,8.4-8.4C-57-1113.3-56.4-1113.5-56.4-1113.5z"/>
	<path id="path3465" class="st0" d="M-69.6-1100.4c0.2,0.1,0.2,0.3,0.2,0.6v17.4c0,0.3-0.1,0.5-0.2,0.5c-0.1,0.1-0.4,0-0.6-0.2
		c0,0,0,0-8.3-8.4c-0.5-0.4-0.5-1.1,0-1.6c0,0,0,0,8.3-8.2C-69.9-1100.4-69.7-1100.4-69.6-1100.4z"/>
	<path id="path3467" class="st0" d="M-59.1-1086.6c0,0,0,0,6.1,0c0.7,0,1.2,0.5,1.2,1.1c0,0,0,0,0,6.6c0,0.7,0.5,1.2,1.1,1.2h3.2
		c0.6,0,0.8,0.4,0.4,0.7c0,0,0,0-8.2,8.2c-0.2,0.2-0.5,0.4-0.8,0.4c-0.3,0-0.6-0.1-0.8-0.4c0,0,0,0-8.2-8.2
		c-0.5-0.4-0.2-0.7,0.4-0.7c0,0,0,0,3.5,0c0.6,0,1.1-0.5,1.1-1.2c0,0,0,0,0-6.6C-60.2-1086.2-59.7-1086.6-59.1-1086.6z"/>
</g>
</svg>
