<svg width="14" height="14" viewBox="0 0 14 14" fill="none" xmlns="http://www.w3.org/2000/svg">
<path d="M8.55261 8.74266C8.55261 8.74266 8.72384 8.57144 9.06628 8.22899C9.40873 7.88654 9.57996 7.23355 9.57996 6.27C9.57996 5.30646 9.23751 4.48224 8.55261 3.79735C7.86772 3.11245 7.0435 2.77 6.07996 2.77C5.11641 2.77 4.2922 3.11245 3.6073 3.79735C2.9224 4.48224 2.57996 5.30646 2.57996 6.27C2.57996 7.23355 2.9224 8.05776 3.6073 8.74266C4.2922 9.42756 5.11641 9.77 6.07996 9.77C7.0435 9.77 7.86772 9.42756 8.55261 8.74266ZM13.58 12.77C13.58 13.0408 13.481 13.2752 13.2831 13.4731C13.0852 13.671 12.8508 13.77 12.58 13.77C12.2987 13.77 12.0643 13.671 11.8768 13.4731L9.19714 10.8013C8.26485 11.4471 7.22579 11.77 6.07996 11.77C5.33516 11.77 4.62292 11.6255 3.94324 11.3364C3.26355 11.0473 2.67761 10.6567 2.18542 10.1645C1.69324 9.67235 1.30261 9.08641 1.01355 8.40672C0.724487 7.72704 0.579956 7.0148 0.579956 6.27C0.579956 5.52521 0.724487 4.81297 1.01355 4.13329C1.30261 3.4536 1.69324 2.86766 2.18542 2.37547C2.67761 1.88329 3.26355 1.49266 3.94324 1.2036C4.62292 0.914536 5.33516 0.770004 6.07996 0.770004C6.82475 0.770004 7.53699 0.914536 8.21667 1.2036C8.89636 1.49266 9.4823 1.88329 9.97449 2.37547C10.4667 2.86766 10.8573 3.4536 11.1464 4.13329C11.4354 4.81297 11.58 5.52521 11.58 6.27C11.58 7.41584 11.257 8.4549 10.6112 9.38719L13.2909 12.0669C13.4836 12.2596 13.58 12.494 13.58 12.77Z" fill="#707070"/>
</svg>
