<svg id="Слой_1" data-name="Слой 1" xmlns="http://www.w3.org/2000/svg" viewBox="0 0 20.1 20.1"><defs><style>.cls-1{fill:#fff;}</style></defs><title>inst</title><g id="icons_-_long" data-name="icons - long"><path class="cls-1" d="M558.8,522.4a2.8,2.8,0,0,0-2.8,2.8,2.86,2.86,0,0,0,2.8,2.8,2.8,2.8,0,0,0,2.8-2.8A2.86,2.86,0,0,0,558.8,522.4Z" transform="translate(-548.7 -515.2)"/><path class="cls-1" d="M565.3,515.2H552.2a3.54,3.54,0,0,0-3.5,3.5v13.1a3.54,3.54,0,0,0,3.5,3.5h13.1a3.54,3.54,0,0,0,3.5-3.5V518.7A3.48,3.48,0,0,0,565.3,515.2ZM558.8,531a5.8,5.8,0,1,1,5.8-5.8A5.8,5.8,0,0,1,558.8,531Zm7.9-12.3a1.37,1.37,0,0,1-1.4,1.4h0a1.37,1.37,0,0,1-1.4-1.4h0a1.37,1.37,0,0,1,1.4-1.4h0a1.43,1.43,0,0,1,1.4,1.4h0Z" transform="translate(-548.7 -515.2)"/></g></svg>