<svg xmlns="http://www.w3.org/2000/svg" viewBox="0 0 8.77 6.17"><defs><style>.cls-1{fill:#fff;}</style></defs><title>Ресурс 6</title><g id="Слой_2" data-name="Слой 2"><g id="Layer_1" data-name="Layer 1"><path class="cls-1" d="M6.13,3.09,3.51,1.35V4.84L6.13,3.09M4.31,0c1,0,2.38.05,3.25.09a1.09,1.09,0,0,1,1,.85A5.33,5.33,0,0,1,8.73,2a14.56,14.56,0,0,1-.06,2.8,1.53,1.53,0,0,1-1,1.28,5,5,0,0,1-.87.08c-1.28,0-3,0-4.29,0A9.93,9.93,0,0,1,1.29,6.1a1.13,1.13,0,0,1-.93-.61,1.9,1.9,0,0,1-.29-1A14.89,14.89,0,0,1,.1,1.4,1.51,1.51,0,0,1,.84.22,1.4,1.4,0,0,1,1.48.07C2.64,0,3.32,0,4.31,0"/></g></g></svg>