<?xml version="1.0" encoding="utf-8"?>
<!-- Generator: Adobe Illustrator 23.0.3, SVG Export Plug-In . SVG Version: 6.00 Build 0)  -->
<svg version="1.1" id="Layer_1" xmlns="http://www.w3.org/2000/svg" xmlns:xlink="http://www.w3.org/1999/xlink" x="0px" y="0px"
	 viewBox="0 0 72 32" style="enable-background:new 0 0 72 32;" xml:space="preserve">
<style type="text/css">
	.st0{fill:#FFFFFF;}
</style>
<path class="st0" d="M8.9,19.1c-0.3-0.2-0.7-0.4-1.1-0.5c-0.4-0.1-0.8-0.2-1.2-0.2c-0.2,0-0.5,0-0.7,0.1c-0.2,0-0.4,0.1-0.6,0.2
	C5.2,18.8,5.1,19,5,19.1c-0.1,0.1-0.1,0.3-0.1,0.5c0,0.2,0,0.3,0.1,0.4c0.1,0.1,0.2,0.2,0.3,0.3c0.2,0.1,0.3,0.2,0.5,0.2
	c0.2,0.1,0.5,0.1,0.7,0.1l0.5,0.1c0.3,0,0.6,0.1,0.9,0.2c0.3,0.1,0.6,0.2,0.8,0.4c0.2,0.2,0.4,0.4,0.6,0.6c0.2,0.3,0.2,0.6,0.2,0.9
	c0,0.4-0.1,0.7-0.3,1.1c-0.2,0.3-0.4,0.6-0.7,0.8c-0.3,0.2-0.6,0.4-1,0.5c-0.4,0.1-0.8,0.2-1.2,0.2c-0.3,0-0.6,0-0.8-0.1
	c-0.3,0-0.6-0.1-0.9-0.2C4.5,25.1,4.2,25,4,24.8c-0.2-0.1-0.5-0.3-0.7-0.5l0.7-1c0.1,0.1,0.3,0.3,0.5,0.3c0.4,0.2,0.8,0.4,1.3,0.5
	c0.2,0,0.5,0.1,0.7,0.1c0.2,0,0.5,0,0.7-0.1c0.2,0,0.4-0.1,0.6-0.2c0.2-0.1,0.3-0.2,0.4-0.4c0.1-0.1,0.2-0.3,0.1-0.5
	c0-0.3-0.2-0.6-0.4-0.7C7.4,22.1,7,22,6.5,22l-0.6-0.1c-0.3,0-0.6-0.1-0.9-0.2c-0.3-0.1-0.5-0.2-0.8-0.4c-0.2-0.2-0.4-0.4-0.5-0.6
	c-0.1-0.3-0.2-0.6-0.2-0.9c0-0.4,0.1-0.7,0.2-1.1c0.2-0.3,0.4-0.6,0.7-0.8c0.3-0.2,0.6-0.4,1-0.5c0.4-0.1,0.8-0.2,1.2-0.2
	c0.5,0,1.1,0.1,1.6,0.2c0.5,0.1,0.9,0.4,1.3,0.6L8.9,19.1z M13.2,19.7c0.4,0,0.7,0.1,1,0.2c0.3,0.1,0.6,0.3,0.8,0.6
	c0.2,0.3,0.4,0.6,0.5,0.9c0.1,0.4,0.2,0.8,0.2,1.2v0.2V23h-4c0,0.2,0.1,0.4,0.2,0.6c0.1,0.2,0.2,0.3,0.4,0.4
	c0.1,0.1,0.3,0.2,0.5,0.2c0.2,0.1,0.4,0.1,0.6,0.1c0.3,0,0.6-0.1,0.8-0.2c0.3-0.1,0.5-0.2,0.8-0.4l0.6,0.8c-0.3,0.3-0.7,0.5-1.1,0.6
	c-0.4,0.1-0.8,0.2-1.2,0.2c-0.4,0-0.8-0.1-1.1-0.2c-0.3-0.1-0.6-0.3-0.9-0.6c-0.3-0.3-0.4-0.6-0.6-0.9c-0.1-0.4-0.2-0.8-0.2-1.2
	c0-0.4,0.1-0.8,0.2-1.2c0.1-0.3,0.3-0.6,0.6-0.9c0.2-0.3,0.5-0.5,0.9-0.6C12.5,19.8,12.9,19.7,13.2,19.7L13.2,19.7z M13.2,20.8
	c-0.2,0-0.4,0-0.6,0.1c-0.2,0.1-0.3,0.2-0.4,0.3c-0.1,0.1-0.2,0.3-0.3,0.4c-0.1,0.2-0.1,0.4-0.2,0.5h2.8c0-0.4-0.2-0.7-0.4-1
	C13.9,20.9,13.5,20.7,13.2,20.8L13.2,20.8z M19.5,19.7c0.4,0,0.8,0.1,1.1,0.2c0.3,0.1,0.6,0.4,0.9,0.6l-0.8,0.8
	c-0.2-0.2-0.4-0.3-0.6-0.4c-0.2-0.1-0.5-0.1-0.7-0.1c-0.2,0-0.4,0-0.6,0.1c-0.2,0.1-0.4,0.2-0.5,0.4c-0.1,0.2-0.3,0.3-0.3,0.5
	c-0.2,0.5-0.2,1,0,1.4c0.1,0.2,0.2,0.4,0.3,0.6c0.1,0.2,0.3,0.3,0.5,0.4c0.2,0.1,0.4,0.1,0.6,0.1c0.3,0,0.5-0.1,0.7-0.2
	c0.2-0.1,0.4-0.2,0.6-0.4l0.7,0.8c-0.2,0.3-0.6,0.5-0.9,0.6c-0.4,0.1-0.7,0.2-1.1,0.2c-0.4,0-0.8-0.1-1.2-0.2
	c-0.7-0.3-1.2-0.8-1.5-1.5c-0.3-0.7-0.3-1.5,0-2.3c0.3-0.7,0.8-1.2,1.5-1.5C18.7,19.8,19.1,19.7,19.5,19.7L19.5,19.7z M27.6,23
	c0,0.4-0.1,0.8-0.2,1.1c-0.1,0.3-0.3,0.6-0.6,0.8c-0.2,0.2-0.5,0.3-0.8,0.4c-0.6,0.2-1.3,0.2-1.9,0c-0.3-0.1-0.6-0.2-0.8-0.4
	c-0.2-0.2-0.4-0.5-0.6-0.8c-0.2-0.4-0.2-0.7-0.2-1.1v-3.1h1.2v3c0,0.2,0,0.5,0.1,0.7c0.1,0.2,0.2,0.3,0.3,0.4
	c0.1,0.1,0.3,0.2,0.4,0.2c0.3,0.1,0.7,0.1,1,0c0.2,0,0.3-0.1,0.4-0.2c0.1-0.1,0.2-0.3,0.3-0.4c0.1-0.2,0.1-0.4,0.1-0.7v-3h1.2
	L27.6,23z M31.9,19.7c0.2,0,0.3,0,0.5,0c0.1,0,0.3,0.1,0.4,0.1L32.6,21c-0.1-0.1-0.3-0.1-0.4-0.1c-0.2,0-0.3-0.1-0.5-0.1
	c-0.2,0-0.4,0-0.5,0.1c-0.2,0.1-0.3,0.2-0.4,0.3c-0.1,0.1-0.2,0.3-0.3,0.5c-0.1,0.2-0.1,0.4-0.1,0.6v3h-1.2v-5.4h1.2v0.6
	c0.2-0.3,0.4-0.4,0.7-0.6C31.3,19.7,31.6,19.7,31.9,19.7L31.9,19.7z M35.9,19.7c0.4,0,0.7,0.1,1,0.2c0.3,0.1,0.6,0.3,0.8,0.6
	c0.2,0.3,0.4,0.6,0.5,0.9c0.1,0.4,0.2,0.8,0.2,1.2v0.2V23h-4.1c0,0.2,0.1,0.4,0.2,0.6c0.1,0.2,0.2,0.3,0.4,0.4
	c0.1,0.1,0.3,0.2,0.5,0.2c0.2,0.1,0.4,0.1,0.6,0.1c0.3,0,0.6-0.1,0.8-0.2c0.3-0.1,0.5-0.2,0.8-0.4l0.6,0.8c-0.3,0.3-0.7,0.5-1.1,0.6
	c-0.4,0.1-0.8,0.2-1.2,0.2c-0.4,0-0.8-0.1-1.1-0.2c-0.3-0.1-0.6-0.3-0.9-0.6c-0.3-0.3-0.4-0.6-0.6-0.9c-0.1-0.4-0.2-0.8-0.2-1.2
	c0-0.4,0.1-0.8,0.2-1.2c0.1-0.3,0.3-0.6,0.5-0.9c0.2-0.3,0.5-0.5,0.9-0.6C35.2,19.8,35.5,19.7,35.9,19.7L35.9,19.7z M35.9,20.8
	c-0.2,0-0.4,0-0.6,0.1c-0.2,0.1-0.3,0.2-0.4,0.3c-0.1,0.1-0.2,0.3-0.3,0.4c-0.1,0.2-0.1,0.4-0.2,0.5h2.8c0-0.4-0.2-0.7-0.4-1
	C36.6,20.9,36.2,20.7,35.9,20.8L35.9,20.8z M43.6,17.2c0.3,0,0.7,0,1,0.1c0.3,0.1,0.6,0.2,0.9,0.3c0.3,0.1,0.5,0.3,0.8,0.5
	c0.2,0.2,0.4,0.4,0.6,0.7l-1.1,0.7c-0.2-0.4-0.6-0.6-0.9-0.8c-0.4-0.2-0.9-0.3-1.3-0.3c-0.4,0-0.8,0.1-1.1,0.2
	c-0.3,0.1-0.6,0.3-0.9,0.6c-0.3,0.3-0.5,0.6-0.6,0.9c-0.3,0.8-0.3,1.6,0,2.4c0.1,0.3,0.3,0.7,0.6,0.9c0.2,0.3,0.5,0.5,0.9,0.6
	c0.4,0.1,0.7,0.2,1.1,0.2c0.9,0,1.7-0.4,2.2-1.1l1,0.8c-0.2,0.2-0.4,0.5-0.6,0.7c-0.2,0.2-0.5,0.4-0.7,0.5c-0.3,0.1-0.6,0.3-0.9,0.3
	c-0.9,0.2-1.8,0.1-2.7-0.2c-1-0.4-1.8-1.2-2.2-2.2c-0.4-1.1-0.4-2.2,0-3.3c0.4-1,1.2-1.8,2.2-2.2C42.4,17.3,43,17.2,43.6,17.2z
	 M50.6,19.7c0.4,0,0.8,0.1,1.2,0.2c0.3,0.1,0.7,0.3,0.9,0.6c0.3,0.3,0.5,0.6,0.6,0.9c0.3,0.7,0.3,1.5,0,2.3
	c-0.1,0.3-0.4,0.6-0.6,0.9c-0.3,0.3-0.6,0.5-0.9,0.6c-0.7,0.3-1.6,0.3-2.3,0c-0.3-0.1-0.7-0.3-0.9-0.6c-0.3-0.3-0.5-0.6-0.6-0.9
	c-0.3-0.7-0.3-1.5,0-2.3c0.1-0.3,0.3-0.6,0.6-0.9c0.3-0.3,0.6-0.5,0.9-0.6C49.8,19.8,50.2,19.7,50.6,19.7L50.6,19.7z M50.6,20.8
	c-0.2,0-0.5,0-0.7,0.1c-0.2,0.1-0.4,0.2-0.5,0.4c-0.2,0.2-0.3,0.3-0.4,0.5c-0.2,0.5-0.2,1,0,1.4c0.1,0.2,0.2,0.4,0.4,0.5
	c0.2,0.2,0.3,0.3,0.5,0.4c0.4,0.2,0.9,0.2,1.3,0c0.4-0.2,0.7-0.5,0.9-0.9c0.2-0.5,0.2-1,0-1.4c-0.1-0.2-0.2-0.4-0.4-0.5
	c-0.2-0.2-0.3-0.3-0.5-0.4C51.1,20.9,50.8,20.8,50.6,20.8L50.6,20.8z M57.1,19.7c0.7,0,1.3,0.3,1.7,0.8v-3.4H60v8.2h-1.2v-0.7
	c-0.2,0.2-0.4,0.4-0.7,0.6c-0.3,0.2-0.7,0.2-1,0.2c-0.7,0-1.4-0.3-1.9-0.8c-0.3-0.3-0.4-0.6-0.6-0.9c-0.3-0.7-0.3-1.6,0-2.3
	c0.1-0.3,0.3-0.6,0.6-0.9C55.7,20,56.4,19.7,57.1,19.7L57.1,19.7z M57.2,20.8c-0.2,0-0.5,0-0.7,0.1c-0.2,0.1-0.4,0.2-0.5,0.4
	c-0.1,0.2-0.3,0.3-0.3,0.6c-0.2,0.4-0.2,0.9,0,1.4c0.1,0.2,0.2,0.4,0.3,0.6c0.1,0.2,0.3,0.3,0.5,0.4c0.4,0.2,0.9,0.2,1.4,0
	c0.2-0.1,0.4-0.2,0.5-0.4c0.1-0.2,0.3-0.3,0.3-0.5c0.2-0.4,0.2-0.9,0-1.4c-0.1-0.2-0.2-0.4-0.3-0.5c-0.1-0.2-0.3-0.3-0.5-0.4
	C57.7,20.9,57.5,20.8,57.2,20.8L57.2,20.8z M63.9,19.7c0.4,0,0.7,0.1,1,0.2c0.3,0.1,0.6,0.3,0.8,0.6c0.2,0.3,0.4,0.6,0.5,0.9
	c0.1,0.4,0.2,0.8,0.2,1.2v0.2V23h-4c0,0.2,0.1,0.4,0.2,0.6c0.1,0.2,0.2,0.3,0.4,0.4c0.1,0.1,0.3,0.2,0.5,0.2
	c0.2,0.1,0.4,0.1,0.6,0.1c0.3,0,0.6-0.1,0.8-0.2c0.3-0.1,0.5-0.2,0.8-0.4l0.6,0.8c-0.3,0.3-0.7,0.5-1.1,0.6
	c-0.4,0.1-0.8,0.2-1.2,0.2c-0.4,0-0.8-0.1-1.1-0.2c-0.3-0.1-0.6-0.3-0.9-0.6c-0.3-0.3-0.4-0.6-0.6-0.9c-0.1-0.4-0.2-0.8-0.2-1.2
	c0-0.4,0.1-0.8,0.2-1.2c0.1-0.3,0.3-0.6,0.6-0.9c0.2-0.3,0.5-0.5,0.9-0.6C63.2,19.8,63.6,19.7,63.9,19.7L63.9,19.7z M67.1,25.3V25
	h0.1v-0.1h-0.3V25H67L67.1,25.3L67.1,25.3z M67.6,25.3v-0.3h-0.1l-0.1,0.2l-0.1-0.2h-0.1v0.3h0.1V25l0.1,0.2h0.1l0.1-0.2L67.6,25.3
	L67.6,25.3z M63.9,20.7c-0.2,0-0.4,0-0.6,0.1c-0.2,0.1-0.3,0.2-0.4,0.3c-0.1,0.1-0.2,0.3-0.3,0.4c-0.1,0.2-0.1,0.4-0.2,0.5h2.8
	c0-0.4-0.2-0.7-0.4-1C64.6,20.8,64.2,20.7,63.9,20.7L63.9,20.7z"/>
<path class="st0" d="M12.8,14.1h-1.3V7.3l-2.4,6H7.7L5.3,7.3v6.7H3.9V5.8h2l2.4,5.9l2.4-5.9h2L12.8,14.1z M19.8,14.1h-1.2v-0.7
	c-0.2,0.3-0.4,0.5-0.7,0.6c-0.3,0.2-0.7,0.2-1,0.2c-0.8,0-1.5-0.3-2-0.8c-0.3-0.3-0.5-0.6-0.6-0.9c-0.3-0.8-0.3-1.6,0-2.4
	c0.1-0.4,0.3-0.7,0.6-0.9c0.5-0.5,1.2-0.8,2-0.8c0.4,0,0.7,0.1,1,0.2c0.3,0.1,0.5,0.4,0.7,0.6V8.4h1.2V14.1z M16.9,9.4
	c-0.2,0-0.5,0-0.7,0.1C16,9.7,15.8,9.8,15.7,10c-0.1,0.2-0.3,0.4-0.3,0.6c-0.2,0.5-0.2,0.9,0,1.4c0.1,0.2,0.2,0.4,0.3,0.6
	c0.1,0.2,0.3,0.3,0.5,0.4c0.5,0.2,1,0.2,1.4,0c0.2-0.1,0.4-0.2,0.5-0.4c0.2-0.2,0.3-0.4,0.3-0.6c0.2-0.5,0.2-1,0-1.4
	c-0.1-0.2-0.2-0.4-0.3-0.6c-0.2-0.2-0.3-0.3-0.5-0.4C17.4,9.5,17.2,9.4,16.9,9.4z M25.4,9.8c-0.1-0.1-0.2-0.1-0.3-0.2
	c-0.1-0.1-0.3-0.1-0.4-0.2c-0.2,0-0.3-0.1-0.5-0.1c-0.2,0-0.3,0-0.5,0c-0.3,0-0.5,0-0.8,0.2c-0.2,0.1-0.3,0.3-0.3,0.5
	c0,0.1,0,0.2,0.1,0.2c0.1,0.1,0.1,0.1,0.2,0.2c0.1,0,0.2,0.1,0.3,0.1c0.1,0,0.2,0,0.4,0.1l0.6,0.1c0.5,0.1,1,0.2,1.4,0.5
	c0.4,0.3,0.6,0.7,0.5,1.1c0,0.3-0.1,0.5-0.2,0.7c-0.1,0.2-0.3,0.4-0.5,0.6c-0.2,0.2-0.5,0.3-0.8,0.4c-0.4,0.1-0.7,0.1-1.1,0.1
	c-0.1,0-0.3,0-0.5,0c-0.2,0-0.4-0.1-0.6-0.1c-0.2-0.1-0.4-0.1-0.7-0.2c-0.2-0.1-0.4-0.2-0.6-0.4l0.6-0.9c0.1,0.1,0.2,0.2,0.3,0.2
	c0.1,0.1,0.3,0.1,0.4,0.2c0.2,0.1,0.3,0.1,0.5,0.1c0.2,0,0.4,0,0.6,0c0.3,0,0.7,0,1-0.2c0.2-0.1,0.3-0.3,0.3-0.5
	c0-0.2-0.1-0.3-0.2-0.4c-0.2-0.1-0.5-0.2-0.7-0.2l-0.6-0.1c-0.5,0-1-0.2-1.4-0.5c-0.3-0.3-0.5-0.7-0.5-1.1c0-0.3,0.1-0.5,0.2-0.8
	c0.1-0.2,0.3-0.4,0.5-0.6c0.2-0.2,0.5-0.3,0.7-0.4c0.3-0.1,0.6-0.1,1-0.1c0.4,0,0.8,0.1,1.3,0.2c0.4,0.1,0.7,0.2,1,0.4L25.4,9.8z
	 M31.3,9.5h-2.2V12c0,0.2,0,0.3,0.1,0.5c0,0.1,0.1,0.2,0.2,0.3c0.1,0.1,0.2,0.1,0.3,0.2c0.1,0,0.2,0.1,0.4,0.1c0.2,0,0.4,0,0.6-0.1
	c0.2-0.1,0.4-0.2,0.5-0.3l0.5,1c-0.2,0.2-0.5,0.3-0.8,0.4c-0.3,0.1-0.6,0.2-1,0.2c-0.5,0-1.1-0.2-1.5-0.5c-0.4-0.5-0.6-1.1-0.5-1.7
	V9.5h-1.1V8.4h1.1V6.7h1.2v1.7h2.2L31.3,9.5z M35.1,8.3c0.4,0,0.7,0.1,1.1,0.2c0.3,0.1,0.6,0.3,0.8,0.6c0.2,0.3,0.4,0.6,0.5,0.9
	c0.1,0.4,0.2,0.8,0.2,1.2v0.2v0.2h-4.2c0,0.2,0.1,0.5,0.2,0.7c0.1,0.2,0.2,0.3,0.4,0.4c0.1,0.1,0.3,0.2,0.5,0.3
	c0.2,0.1,0.4,0.1,0.6,0.1c0.3,0,0.6-0.1,0.9-0.2c0.3-0.1,0.5-0.2,0.8-0.4l0.6,0.9c-0.3,0.3-0.7,0.5-1.1,0.6
	c-0.4,0.1-0.8,0.2-1.2,0.2c-0.4,0-0.8-0.1-1.2-0.2c-0.3-0.1-0.7-0.3-0.9-0.6c-0.3-0.3-0.5-0.6-0.6-0.9c-0.1-0.4-0.2-0.8-0.2-1.2
	c0-0.4,0.1-0.8,0.2-1.2c0.1-0.3,0.3-0.7,0.6-0.9c0.2-0.3,0.5-0.5,0.9-0.6C34.3,8.3,34.7,8.3,35.1,8.3L35.1,8.3z M35,9.4
	c-0.2,0-0.4,0-0.6,0.1c-0.2,0.1-0.3,0.2-0.4,0.3c-0.1,0.1-0.2,0.3-0.3,0.4c-0.1,0.2-0.1,0.4-0.2,0.6h2.9c0-0.4-0.2-0.7-0.5-1
	C35.7,9.5,35.4,9.4,35,9.4z M42,8.3c0.2,0,0.3,0,0.5,0c0.1,0,0.3,0.1,0.4,0.1l-0.3,1.2c-0.1-0.1-0.3-0.1-0.4-0.2
	c-0.2,0-0.3-0.1-0.5-0.1c-0.2,0-0.4,0-0.5,0.1c-0.2,0.1-0.3,0.2-0.4,0.3c-0.1,0.1-0.2,0.3-0.3,0.5c-0.1,0.2-0.1,0.4-0.1,0.6v3.1
	h-1.2V8.4h1.2V9c0.2-0.3,0.4-0.5,0.7-0.6C41.3,8.3,41.7,8.3,42,8.3L42,8.3z M46.2,8.3c0.4,0,0.8,0.1,1.2,0.2
	c0.4,0.1,0.7,0.4,0.9,0.7L47.5,10c-0.2-0.2-0.4-0.3-0.6-0.4c-0.2-0.1-0.5-0.2-0.7-0.2c-0.2,0-0.4,0-0.7,0.1
	c-0.2,0.1-0.4,0.2-0.5,0.4c-0.2,0.2-0.3,0.4-0.3,0.6c-0.2,0.5-0.2,1,0,1.5c0.1,0.2,0.2,0.4,0.3,0.6c0.1,0.2,0.3,0.3,0.5,0.4
	c0.2,0.1,0.4,0.1,0.7,0.1c0.3,0,0.5-0.1,0.8-0.2c0.2-0.1,0.4-0.3,0.6-0.4l0.8,0.8c-0.3,0.3-0.6,0.5-0.9,0.7
	c-0.4,0.2-0.8,0.2-1.2,0.2c-0.4,0-0.8-0.1-1.2-0.2c-0.7-0.3-1.3-0.8-1.5-1.6c-0.3-0.8-0.3-1.6,0-2.4c0.3-0.7,0.8-1.3,1.5-1.6
	C45.4,8.3,45.8,8.3,46.2,8.3L46.2,8.3z M54.8,14.1h-1.2v-0.7c-0.2,0.3-0.4,0.5-0.7,0.6c-0.3,0.2-0.7,0.2-1,0.2c-0.8,0-1.5-0.3-2-0.8
	c-0.3-0.3-0.5-0.6-0.6-0.9c-0.3-0.8-0.3-1.6,0-2.4c0.1-0.4,0.3-0.7,0.6-0.9c0.5-0.5,1.2-0.8,2-0.8c0.4,0,0.7,0.1,1,0.2
	c0.3,0.1,0.5,0.4,0.7,0.6V8.4h1.2V14.1z M52,9.4c-0.2,0-0.5,0-0.7,0.1c-0.2,0.1-0.4,0.2-0.5,0.4c-0.1,0.2-0.3,0.4-0.3,0.6
	c-0.2,0.5-0.2,0.9,0,1.4c0.1,0.2,0.2,0.4,0.3,0.6c0.1,0.2,0.3,0.3,0.5,0.4c0.5,0.2,1,0.2,1.4,0c0.2-0.1,0.4-0.2,0.5-0.4
	c0.2-0.2,0.3-0.4,0.3-0.6c0.2-0.5,0.2-1,0-1.4c-0.1-0.2-0.2-0.4-0.3-0.6c-0.2-0.2-0.3-0.3-0.5-0.4C52.5,9.5,52.2,9.4,52,9.4L52,9.4z
	 M59.5,8.3c0.2,0,0.3,0,0.5,0c0.1,0,0.3,0.1,0.4,0.1l-0.3,1.2c-0.1-0.1-0.3-0.1-0.4-0.2c-0.2,0-0.3-0.1-0.5-0.1
	c-0.2,0-0.4,0-0.5,0.1c-0.2,0.1-0.3,0.2-0.4,0.3C58.1,10,58,10.1,58,10.3c-0.1,0.2-0.1,0.4-0.1,0.6v3.1h-1.2V8.4h1.2V9
	c0.2-0.3,0.4-0.5,0.7-0.6C58.9,8.3,59.2,8.3,59.5,8.3L59.5,8.3z M63.5,8.3c0.4,0,0.7,0.1,1,0.2c0.3,0.1,0.5,0.4,0.7,0.6V5.6h1.2v8.5
	h-1.2v-0.7c-0.2,0.3-0.4,0.5-0.7,0.6c-0.3,0.2-0.7,0.2-1,0.2c-0.8,0-1.5-0.3-2-0.8c-0.3-0.3-0.5-0.6-0.6-0.9c-0.3-0.8-0.3-1.6,0-2.4
	c0.1-0.4,0.3-0.7,0.6-0.9C62,8.6,62.8,8.3,63.5,8.3L63.5,8.3z M68,13.5c0,0,0.1,0,0.1,0c0,0,0.1,0,0.1,0.1c0,0,0.1,0.1,0.1,0.1
	c0,0.1,0,0.2,0,0.3c0,0,0,0.1-0.1,0.1c0,0-0.1,0.1-0.1,0.1c0,0-0.1,0-0.1,0c-0.1,0-0.3-0.1-0.3-0.2c0-0.1,0-0.2,0-0.3
	c0-0.1,0.1-0.2,0.2-0.2C67.9,13.5,67.9,13.5,68,13.5L68,13.5z M68,14.2c0,0,0.1,0,0.1,0c0,0,0.1,0,0.1-0.1c0.1-0.1,0.1-0.3,0-0.4
	c0,0-0.1,0-0.1-0.1c0,0-0.1,0-0.1,0c0,0-0.1,0-0.1,0c-0.1,0-0.1,0.1-0.2,0.2c0,0.1,0,0.2,0.1,0.2c0,0,0.1,0,0.1,0.1
	C67.9,14.2,67.9,14.2,68,14.2L68,14.2z M68,13.7c0,0,0.1,0,0.1,0c0,0,0,0,0,0.1c0,0,0,0.1,0,0.1c0,0,0,0-0.1,0l0.1,0.1H68L67.9,14h0
	v0.1h-0.1v-0.3L68,13.7z M67.9,13.8L67.9,13.8L67.9,13.8c0.1,0.1,0.1,0.1,0.1,0.1c0,0,0,0,0,0c0,0,0,0,0,0
	C68,13.8,68,13.8,67.9,13.8L67.9,13.8z M63.7,9.4c-0.2,0-0.5,0-0.7,0.1c-0.2,0.1-0.4,0.2-0.5,0.4c-0.1,0.2-0.3,0.4-0.3,0.6
	c-0.2,0.5-0.2,0.9,0,1.4c0.1,0.2,0.2,0.4,0.3,0.6c0.1,0.2,0.3,0.3,0.5,0.4c0.5,0.2,1,0.2,1.4,0c0.2-0.1,0.4-0.2,0.5-0.4
	c0.2-0.2,0.3-0.4,0.4-0.6c0.2-0.5,0.2-1,0-1.4c-0.1-0.2-0.2-0.4-0.3-0.6c-0.2-0.2-0.3-0.3-0.5-0.4C64.2,9.5,63.9,9.4,63.7,9.4
	L63.7,9.4z"/>
</svg>
