<?xml version="1.0" encoding="utf-8"?>
<!-- Generator: Adobe Illustrator 23.0.3, SVG Export Plug-In . SVG Version: 6.00 Build 0)  -->
<svg version="1.1" id="Layer_1" xmlns="http://www.w3.org/2000/svg" xmlns:xlink="http://www.w3.org/1999/xlink" x="0px" y="0px"
	 viewBox="0 0 72 32" style="enable-background:new 0 0 72 32;" xml:space="preserve">
<style type="text/css">
	.st0{fill-rule:evenodd;clip-rule:evenodd;fill:#FFFFFF;}
</style>
<path class="st0" d="M30.5,16.8l-2.8,7.5l-0.3-1.5c-0.7-1.9-2.2-3.8-3.9-4.6l2.5,9.6l3,0l4.5-11H30.5z"/>
<path class="st0" d="M32.8,27.8l1.8-11h2.8l-1.8,11H32.8z"/>
<path class="st0" d="M46,17c-0.6-0.2-1.4-0.5-2.5-0.5c-2.8,0-4.8,1.5-4.8,3.6c0,1.6,1.4,2.5,2.5,3c1.1,0.5,1.5,0.9,1.5,1.4
	c0,0.7-0.9,1.1-1.7,1.1c-1.1,0-1.7-0.2-2.7-0.6l-0.4-0.2l-0.4,2.5c0.7,0.3,1.9,0.6,3.2,0.6c3,0,4.9-1.5,5-3.8c0-1.3-0.7-2.2-2.4-3
	c-1-0.5-1.6-0.8-1.6-1.4c0-0.5,0.5-0.9,1.6-0.9c0.9,0,1.6,0.2,2.1,0.4l0.3,0.1L46,17z M53.3,16.8h-2.2c-0.7,0-1.2,0.2-1.5,0.9
	l-4.2,10.1h3c0,0,0.5-1.4,0.6-1.7c0.3,0,3.2,0,3.6,0c0.1,0.4,0.3,1.6,0.3,1.6h2.6L53.3,16.8z M49.8,23.9c0.2-0.6,1.1-3.1,1.1-3.1
	c0,0,0.2-0.6,0.4-1l0.2,0.9c0,0,0.5,2.6,0.7,3.2H49.8z"/>
<path class="st0" d="M25.1,16.8h-4.6l0,0.2c3.6,0.9,5.9,3.1,6.9,5.8l-1-5.1C26.2,17,25.7,16.8,25.1,16.8z"/>
<path class="st0" d="M11.9,14.1h-1.8L8,4.7l2-0.3l1.4,7.4l3.6-7.3H17L11.9,14.1z"/>
<path class="st0" d="M21.3,11H17c-0.1,1.3,0.5,1.9,1.5,1.9c0.9,0,1.6-0.3,2.4-0.8l0,1.3c-0.8,0.5-1.7,0.8-2.8,0.8
	c-1.9,0-3.1-1.1-2.8-3.5c0.3-2.2,1.9-3.5,3.6-3.5c2,0,2.7,1.5,2.4,3.4C21.4,10.8,21.4,10.9,21.3,11z M18.8,8.3
	c-0.7,0-1.3,0.5-1.6,1.6h2.7C19.9,8.9,19.6,8.3,18.8,8.3z M24.2,10.2l-0.6,3.9h-1.7l1-6.7h1.4l0,1.4c0.6-0.8,1.3-1.4,2.4-1.5l0,1.7
	C25.7,8.9,24.7,9.5,24.2,10.2z M26.7,14.1l1-6.7h1.7l-1,6.7H26.7z M28.8,6.2c-0.6,0-0.9-0.4-0.9-0.9c0.1-0.6,0.6-1,1.2-1
	c0.5,0,0.9,0.4,0.8,1C29.8,5.8,29.3,6.2,28.8,6.2z M34.1,5.5c-0.6,0-0.9,0.3-1,0.9l-0.2,1h1.3l0,1.4h-1.5l-0.8,5.4h-1.7L31,8.7h-1
	l0.2-1.4h1l0.2-1.2c0.2-1.5,1.3-2,2.6-2c0.3,0,0.5,0,0.7,0.1l0,1.4C34.6,5.5,34.4,5.5,34.1,5.5z M34.1,14.1l1-6.7h1.7l-1,6.7H34.1z
	 M36.2,6.2c-0.6,0-0.9-0.4-0.9-0.9c0.1-0.6,0.6-1,1.2-1c0.5,0,0.9,0.4,0.8,1C37.2,5.8,36.7,6.2,36.2,6.2z M43.3,11H39
	c-0.1,1.3,0.5,1.9,1.5,1.9c0.9,0,1.6-0.3,2.4-0.8l0,1.3c-0.8,0.5-1.7,0.8-2.8,0.8c-1.9,0-3.1-1.1-2.8-3.5c0.3-2.2,1.9-3.5,3.6-3.5
	c2,0,2.7,1.5,2.4,3.4C43.4,10.8,43.3,10.9,43.3,11z M40.8,8.3c-0.7,0-1.3,0.5-1.6,1.6h2.7C41.9,8.9,41.6,8.3,40.8,8.3z M48.3,14.1
	l0-0.9c-0.6,0.6-1.3,1.1-2.2,1.1c-1.4,0-2.4-1-2-3.3c0.4-2.5,1.9-3.6,3.5-3.6c0.6,0,1.1,0.1,1.5,0.3l0.5-3.2L51.2,4l-1.6,10.1H48.3z
	 M48.8,8.9c-0.4-0.2-0.7-0.3-1.3-0.3c-0.9,0-1.6,0.7-1.9,2.2c-0.2,1.3,0.3,1.9,1,1.9c0.6,0,1.1-0.4,1.7-0.9L48.8,8.9z M54.8,14.1
	c-0.8,0-1.4-0.1-2-0.3l1.1-7.1l1.3-0.2l-0.5,3.1c0.4-0.3,0.9-0.7,1.6-0.7c1.1,0,1.8,0.8,1.5,2.5C57.5,13.2,56.3,14.1,54.8,14.1z
	 M55.8,10c-0.4,0-0.8,0.3-1.2,0.7L54.2,13c0.2,0.1,0.4,0.1,0.8,0.1c0.8,0,1.4-0.5,1.5-1.6C56.7,10.5,56.3,10,55.8,10z M60.8,14.3
	c-0.6,1.3-1.3,1.6-2.3,1.6c-0.2,0-0.3,0-0.5-0.1l0-1c0.2,0,0.3,0.1,0.6,0.1c0.4,0,0.7-0.2,0.9-0.5l0.2-0.3l-1.1-5L60,8.9l0.6,3.6
	L62.3,9h1.3L60.8,14.3z"/>
</svg>
