<svg id="Layer_1" data-name="Layer 1" xmlns="http://www.w3.org/2000/svg" viewBox="0 0 116 25.41"><defs><style>.cls-1{fill:#fff;}</style></defs><title>Pyramida_Logo</title><path class="cls-1" d="M381.85,270.32a1.85,1.85,0,1,0,1.85,1.85,1.85,1.85,0,0,0-1.85-1.85" transform="translate(-299.85 -270.32)"/><path class="cls-1" d="M402.3,283.3a7.3,7.3,0,0,0,7.23,6.79h6.32v-7.65a6.45,6.45,0,0,0-6.45-6.45h-0.07a7.05,7.05,0,0,0-7,7.31m7-4.25h3.46v8h-3.46a4,4,0,0,1,0-8" transform="translate(-299.85 -270.32)"/><path class="cls-1" d="M337.85,279h1.29V276h-1.36a6.48,6.48,0,0,0-6.38,6.45v7.64h3.06v-7.64a3.4,3.4,0,0,1,3.4-3.4" transform="translate(-299.85 -270.32)"/><path class="cls-1" d="M347.31,276h-0.07a7.05,7.05,0,0,0-7,7.31,7.3,7.3,0,0,0,7.23,6.79h6.32v-7.65a6.45,6.45,0,0,0-6.45-6.45m3.39,11h-3.46a4,4,0,1,1,0-8h3.46v8Z" transform="translate(-299.85 -270.32)"/><path class="cls-1" d="M359.52,290.09V279h3a3,3,0,0,1,3,3v8h3.06v-8a3,3,0,1,1,6,0v8h3.06v-8a6.08,6.08,0,0,0-6.07-6.07,6,6,0,0,0-4.42,1.92l-0.12.13-0.12-.13a6,6,0,0,0-4.42-1.92h-6.07v14.1h3.05Z" transform="translate(-299.85 -270.32)"/><rect class="cls-1" x="80.56" y="5.68" width="3.05" height="14.1"/><path class="cls-1" d="M322.57,295.72h0.1a6.32,6.32,0,0,0,6.24-5.4h-3.12a3.26,3.26,0,0,1-3.11,2.35h-0.1a3.25,3.25,0,0,1-3.11-2.35h-3.12a6.32,6.32,0,0,0,6.23,5.4" transform="translate(-299.85 -270.32)"/><path class="cls-1" d="M325.92,276v7.73a3.26,3.26,0,0,1-3.25,3.25h-0.1a3.26,3.26,0,0,1-3.25-3.25V276h-3.05v7.73a6.31,6.31,0,0,0,6.31,6.31h0.1a6.31,6.31,0,0,0,6.31-6.31V276h-3.05Z" transform="translate(-299.85 -270.32)"/><path class="cls-1" d="M311.83,278.19a7.37,7.37,0,0,0-5.21-2.2h-0.1a6.66,6.66,0,0,0-6.66,6.66v13.07h3.05v-5.63h3.9a7.08,7.08,0,0,0,7-6.93,6.88,6.88,0,0,0-2-5m-5,8.84h-3.9v-8h3.9a4,4,0,1,1,0,8" transform="translate(-299.85 -270.32)"/><path class="cls-1" d="M387.9,287.89a7.36,7.36,0,0,0,5.21,2.2h0.1a6.66,6.66,0,0,0,6.66-6.66V270.37h-3.05V276h-3.89a7.08,7.08,0,0,0-7,6.93,6.88,6.88,0,0,0,2,5m5-8.84h3.89v8h-3.89a4,4,0,0,1,0-8" transform="translate(-299.85 -270.32)"/></svg>